<svg width="140" height="137" viewBox="0 0 140 137" fill="none" xmlns="http://www.w3.org/2000/svg">
<path d="M2.95886 40.2644C2.95886 41.7838 1.8094 42.9234 0.276789 42.9234C-1.25582 42.9234 -2.40527 41.7838 -2.40527 40.2644C-2.40527 38.745 -1.25582 37.6055 0.276789 37.6055C1.8094 37.6055 2.95886 38.8716 2.95886 40.2644Z" fill="white"/>
<path d="M25.8202 40.2644C25.8202 41.7838 24.6707 42.9234 23.1381 42.9234C21.6055 42.9234 20.4561 41.7838 20.4561 40.2644C20.4561 38.745 21.6055 37.6055 23.1381 37.6055C24.6707 37.6055 25.8202 38.8716 25.8202 40.2644Z" fill="white"/>
<path d="M48.6815 40.2644C48.6815 41.7838 47.5321 42.9234 45.9994 42.9234C44.4668 42.9234 43.3174 41.7838 43.3174 40.2644C43.3174 38.745 44.4668 37.6055 45.9994 37.6055C47.4043 37.6055 48.6815 38.8716 48.6815 40.2644Z" fill="white"/>
<path d="M71.5438 40.2644C71.5438 41.7838 70.3944 42.9234 68.8618 42.9234C67.3291 42.9234 66.1797 41.7838 66.1797 40.2644C66.1797 38.745 67.3291 37.6055 68.8618 37.6055C70.3944 37.6055 71.5438 38.8716 71.5438 40.2644Z" fill="white"/>
<path d="M94.2772 40.2644C94.2772 41.7838 93.1278 42.9234 91.5952 42.9234C90.0625 42.9234 88.9131 41.7838 88.9131 40.2644C88.9131 38.745 90.0625 37.6055 91.5952 37.6055C93.1278 37.6055 94.2772 38.8716 94.2772 40.2644Z" fill="white"/>
<path d="M117.139 40.2644C117.139 41.7838 115.989 42.9234 114.456 42.9234C112.924 42.9234 111.774 41.7838 111.774 40.2644C111.774 38.745 112.924 37.6055 114.456 37.6055C115.989 37.6055 117.139 38.8716 117.139 40.2644Z" fill="white"/>
<path d="M140 40.2644C140 41.7838 138.85 42.9234 137.318 42.9234C135.785 42.9234 134.636 41.7838 134.636 40.2644C134.636 38.745 135.785 37.6055 137.318 37.6055C138.723 37.6055 140 38.8716 140 40.2644Z" fill="white"/>
<path d="M2.95886 59.1306C2.95886 60.6501 1.8094 61.7896 0.276789 61.7896C-1.25582 61.7896 -2.40527 60.6501 -2.40527 59.1306C-2.40527 57.6112 -1.25582 56.4717 0.276789 56.4717C1.8094 56.4717 2.95886 57.6112 2.95886 59.1306Z" fill="white"/>
<path d="M25.8202 59.1306C25.8202 60.6501 24.6707 61.7896 23.1381 61.7896C21.6055 61.7896 20.4561 60.6501 20.4561 59.1306C20.4561 57.6112 21.6055 56.4717 23.1381 56.4717C24.6707 56.4717 25.8202 57.6112 25.8202 59.1306Z" fill="white"/>
<path d="M48.6815 59.1306C48.6815 60.6501 47.5321 61.7896 45.9994 61.7896C44.4668 61.7896 43.3174 60.6501 43.3174 59.1306C43.3174 57.6112 44.4668 56.4717 45.9994 56.4717C47.4043 56.4717 48.6815 57.6112 48.6815 59.1306Z" fill="white"/>
<path d="M71.5438 59.1306C71.5438 60.6501 70.3944 61.7896 68.8618 61.7896C67.3291 61.7896 66.1797 60.6501 66.1797 59.1306C66.1797 57.6112 67.3291 56.4717 68.8618 56.4717C70.3944 56.4717 71.5438 57.6112 71.5438 59.1306Z" fill="white"/>
<path d="M94.2772 59.1306C94.2772 60.6501 93.1278 61.7896 91.5952 61.7896C90.0625 61.7896 88.9131 60.6501 88.9131 59.1306C88.9131 57.6112 90.0625 56.4717 91.5952 56.4717C93.1278 56.4717 94.2772 57.6112 94.2772 59.1306Z" fill="white"/>
<path d="M117.139 59.1306C117.139 60.6501 115.989 61.7896 114.456 61.7896C112.924 61.7896 111.774 60.6501 111.774 59.1306C111.774 57.6112 112.924 56.4717 114.456 56.4717C115.989 56.4717 117.139 57.6112 117.139 59.1306Z" fill="white"/>
<path d="M140 59.1306C140 60.6501 138.85 61.7896 137.318 61.7896C135.785 61.7896 134.636 60.6501 134.636 59.1306C134.636 57.6112 135.785 56.4717 137.318 56.4717C138.723 56.4717 140 57.6112 140 59.1306Z" fill="white"/>
<path d="M2.95886 2.65896C2.95886 4.17837 1.8094 5.31793 0.276789 5.31793C-1.25582 5.31793 -2.40527 4.17837 -2.40527 2.65896C-2.40527 1.13956 -1.1281 0 0.276789 0C1.8094 0 2.95886 1.13956 2.95886 2.65896Z" fill="white"/>
<path d="M25.8202 2.65896C25.8202 4.17837 24.6707 5.31793 23.1381 5.31793C21.6055 5.31793 20.4561 4.17837 20.4561 2.65896C20.4561 1.13956 21.7332 0 23.1381 0C24.543 0 25.8202 1.13956 25.8202 2.65896Z" fill="white"/>
<path d="M48.6815 2.65896C48.6815 4.17837 47.5321 5.31793 45.9994 5.31793C44.4668 5.31793 43.3174 4.17837 43.3174 2.65896C43.3174 1.13956 44.4668 0 45.9994 0C47.4043 0 48.6815 1.13956 48.6815 2.65896Z" fill="white"/>
<path d="M71.5438 2.65896C71.5438 4.17837 70.3944 5.31793 68.8618 5.31793C67.3291 5.31793 66.1797 4.17837 66.1797 2.65896C66.1797 1.13956 67.3291 0 68.8618 0C70.3944 0 71.5438 1.13956 71.5438 2.65896Z" fill="white"/>
<path d="M94.2772 2.65896C94.2772 4.17837 93.1278 5.31793 91.5952 5.31793C90.0625 5.31793 88.9131 4.17837 88.9131 2.65896C88.9131 1.13956 90.0625 0 91.5952 0C93.1278 0 94.2772 1.13956 94.2772 2.65896Z" fill="white"/>
<path d="M117.139 2.65896C117.139 4.17837 115.989 5.31793 114.456 5.31793C112.924 5.31793 111.774 4.17837 111.774 2.65896C111.774 1.13956 112.924 0 114.456 0C115.989 0 117.139 1.13956 117.139 2.65896Z" fill="white"/>
<path d="M140 2.65896C140 4.17837 138.85 5.31793 137.318 5.31793C135.785 5.31793 134.636 4.17837 134.636 2.65896C134.636 1.13956 135.785 0 137.318 0C138.723 0 140 1.13956 140 2.65896Z" fill="white"/>
<path d="M2.95886 21.5252C2.95886 23.0446 1.8094 24.1841 0.276789 24.1841C-1.25582 24.1841 -2.40527 23.0446 -2.40527 21.5252C-2.40527 20.0058 -1.25582 18.8662 0.276789 18.8662C1.8094 18.8662 2.95886 20.0058 2.95886 21.5252Z" fill="white"/>
<path d="M25.8202 21.5252C25.8202 23.0446 24.6707 24.1841 23.1381 24.1841C21.6055 24.1841 20.4561 23.0446 20.4561 21.5252C20.4561 20.0058 21.6055 18.8662 23.1381 18.8662C24.6707 18.8662 25.8202 20.0058 25.8202 21.5252Z" fill="white"/>
<path d="M48.6815 21.5252C48.6815 23.0446 47.5321 24.1841 45.9994 24.1841C44.4668 24.1841 43.3174 23.0446 43.3174 21.5252C43.3174 20.0058 44.4668 18.8662 45.9994 18.8662C47.4043 18.8662 48.6815 20.0058 48.6815 21.5252Z" fill="white"/>
<path d="M71.5438 21.5252C71.5438 23.0446 70.3944 24.1841 68.8618 24.1841C67.3291 24.1841 66.1797 23.0446 66.1797 21.5252C66.1797 20.0058 67.3291 18.8662 68.8618 18.8662C70.3944 18.8662 71.5438 20.0058 71.5438 21.5252Z" fill="white"/>
<path d="M94.2772 21.5252C94.2772 23.0446 93.1278 24.1841 91.5952 24.1841C90.0625 24.1841 88.9131 23.0446 88.9131 21.5252C88.9131 20.0058 90.0625 18.8662 91.5952 18.8662C93.1278 18.8662 94.2772 20.0058 94.2772 21.5252Z" fill="white"/>
<path d="M117.139 21.5252C117.139 23.0446 115.989 24.1841 114.456 24.1841C112.924 24.1841 111.774 23.0446 111.774 21.5252C111.774 20.0058 112.924 18.8662 114.456 18.8662C115.989 18.8662 117.139 20.0058 117.139 21.5252Z" fill="white"/>
<path d="M140 21.5252C140 23.0446 138.85 24.1841 137.318 24.1841C135.785 24.1841 134.636 23.0446 134.636 21.5252C134.636 20.0058 135.785 18.8662 137.318 18.8662C138.723 18.8662 140 20.0058 140 21.5252Z" fill="white"/>
<path d="M2.95886 77.8699C2.95886 79.3893 1.8094 80.5289 0.276789 80.5289C-1.25582 80.5289 -2.40527 79.3893 -2.40527 77.8699C-2.40527 76.3505 -1.25582 75.2109 0.276789 75.2109C1.8094 75.2109 2.95886 76.4771 2.95886 77.8699Z" fill="white"/>
<path d="M25.8202 77.8699C25.8202 79.3893 24.6707 80.5289 23.1381 80.5289C21.6055 80.5289 20.4561 79.3893 20.4561 77.8699C20.4561 76.3505 21.6055 75.2109 23.1381 75.2109C24.6707 75.2109 25.8202 76.4771 25.8202 77.8699Z" fill="white"/>
<path d="M48.6815 77.8699C48.6815 79.3893 47.5321 80.5289 45.9994 80.5289C44.4668 80.5289 43.3174 79.3893 43.3174 77.8699C43.3174 76.3505 44.4668 75.2109 45.9994 75.2109C47.4043 75.2109 48.6815 76.4771 48.6815 77.8699Z" fill="white"/>
<path d="M71.5438 77.8699C71.5438 79.3893 70.3944 80.5289 68.8618 80.5289C67.3291 80.5289 66.1797 79.3893 66.1797 77.8699C66.1797 76.3505 67.3291 75.2109 68.8618 75.2109C70.3944 75.2109 71.5438 76.4771 71.5438 77.8699Z" fill="white"/>
<path d="M94.2772 77.8699C94.2772 79.3893 93.1278 80.5289 91.5952 80.5289C90.0625 80.5289 88.9131 79.3893 88.9131 77.8699C88.9131 76.3505 90.0625 75.2109 91.5952 75.2109C93.1278 75.2109 94.2772 76.4771 94.2772 77.8699Z" fill="white"/>
<path d="M117.139 77.8699C117.139 79.3893 115.989 80.5289 114.456 80.5289C112.924 80.5289 111.774 79.3893 111.774 77.8699C111.774 76.3505 112.924 75.2109 114.456 75.2109C115.989 75.2109 117.139 76.4771 117.139 77.8699Z" fill="white"/>
<path d="M140 77.8699C140 79.3893 138.85 80.5289 137.318 80.5289C135.785 80.5289 134.636 79.3893 134.636 77.8699C134.636 76.3505 135.785 75.2109 137.318 75.2109C138.723 75.2109 140 76.4771 140 77.8699Z" fill="white"/>
<path d="M2.95886 96.7361C2.95886 98.2555 1.8094 99.3951 0.276789 99.3951C-1.25582 99.3951 -2.40527 98.2555 -2.40527 96.7361C-2.40527 95.2167 -1.25582 94.0771 0.276789 94.0771C1.8094 94.0771 2.95886 95.2167 2.95886 96.7361Z" fill="white"/>
<path d="M23.1381 99.3951C24.6194 99.3951 25.8202 98.2046 25.8202 96.7361C25.8202 95.2676 24.6194 94.0771 23.1381 94.0771C21.6569 94.0771 20.4561 95.2676 20.4561 96.7361C20.4561 98.2046 21.6569 99.3951 23.1381 99.3951Z" fill="white"/>
<path d="M48.6815 96.7361C48.6815 98.2555 47.5321 99.3951 45.9994 99.3951C44.4668 99.3951 43.3174 98.2555 43.3174 96.7361C43.3174 95.2167 44.4668 94.0771 45.9994 94.0771C47.4043 94.0771 48.6815 95.2167 48.6815 96.7361Z" fill="white"/>
<path d="M71.5438 96.7361C71.5438 98.2555 70.3944 99.3951 68.8618 99.3951C67.3291 99.3951 66.1797 98.2555 66.1797 96.7361C66.1797 95.2167 67.3291 94.0771 68.8618 94.0771C70.3944 94.0771 71.5438 95.2167 71.5438 96.7361Z" fill="white"/>
<path d="M94.2772 96.7361C94.2772 98.2555 93.1278 99.3951 91.5952 99.3951C90.0625 99.3951 88.9131 98.2555 88.9131 96.7361C88.9131 95.2167 90.0625 94.0771 91.5952 94.0771C93.1278 94.0771 94.2772 95.2167 94.2772 96.7361Z" fill="white"/>
<path d="M114.456 99.3951C115.938 99.3951 117.139 98.2046 117.139 96.7361C117.139 95.2676 115.938 94.0771 114.456 94.0771C112.975 94.0771 111.774 95.2676 111.774 96.7361C111.774 98.2046 112.975 99.3951 114.456 99.3951Z" fill="white"/>
<path d="M140 96.7361C140 98.2555 138.85 99.3951 137.318 99.3951C135.785 99.3951 134.636 98.2555 134.636 96.7361C134.636 95.2167 135.785 94.0771 137.318 94.0771C138.723 94.0771 140 95.2167 140 96.7361Z" fill="white"/>
<path d="M2.95886 115.601C2.95886 117.121 1.8094 118.26 0.276789 118.26C-1.25582 118.26 -2.40527 117.121 -2.40527 115.601C-2.40527 114.082 -1.25582 112.942 0.276789 112.942C1.8094 112.942 2.95886 114.082 2.95886 115.601Z" fill="white"/>
<path d="M25.8202 115.601C25.8202 117.121 24.6707 118.26 23.1381 118.26C21.6055 118.26 20.4561 117.121 20.4561 115.601C20.4561 114.082 21.6055 112.942 23.1381 112.942C24.6707 112.942 25.8202 114.082 25.8202 115.601Z" fill="white"/>
<path d="M48.6815 115.601C48.6815 117.121 47.5321 118.26 45.9994 118.26C44.4668 118.26 43.3174 117.121 43.3174 115.601C43.3174 114.082 44.4668 112.942 45.9994 112.942C47.4043 112.942 48.6815 114.082 48.6815 115.601Z" fill="white"/>
<path d="M71.5438 115.601C71.5438 117.121 70.3944 118.26 68.8618 118.26C67.3291 118.26 66.1797 117.121 66.1797 115.601C66.1797 114.082 67.3291 112.942 68.8618 112.942C70.3944 112.942 71.5438 114.082 71.5438 115.601Z" fill="white"/>
<path d="M94.2772 115.601C94.2772 117.121 93.1278 118.26 91.5952 118.26C90.0625 118.26 88.9131 117.121 88.9131 115.601C88.9131 114.082 90.0625 112.942 91.5952 112.942C93.1278 112.942 94.2772 114.082 94.2772 115.601Z" fill="white"/>
<path d="M117.139 115.601C117.139 117.121 115.989 118.26 114.456 118.26C112.924 118.26 111.774 117.121 111.774 115.601C111.774 114.082 112.924 112.942 114.456 112.942C115.989 112.942 117.139 114.082 117.139 115.601Z" fill="white"/>
<path d="M140 115.601C140 117.121 138.85 118.26 137.318 118.26C135.785 118.26 134.636 117.121 134.636 115.601C134.636 114.082 135.785 112.942 137.318 112.942C138.723 112.942 140 114.082 140 115.601Z" fill="white"/>
<path d="M2.95886 134.341C2.95886 135.86 1.8094 137 0.276789 137C-1.25582 137 -2.40527 135.86 -2.40527 134.341C-2.40527 132.821 -1.25582 131.682 0.276789 131.682C1.8094 131.682 2.95886 132.948 2.95886 134.341Z" fill="white"/>
<path d="M25.8202 134.341C25.8202 135.86 24.6707 137 23.1381 137C21.6055 137 20.4561 135.86 20.4561 134.341C20.4561 132.821 21.6055 131.682 23.1381 131.682C24.6707 131.682 25.8202 132.948 25.8202 134.341Z" fill="white"/>
<path d="M48.6815 134.341C48.6815 135.86 47.5321 137 45.9994 137C44.4668 137 43.3174 135.86 43.3174 134.341C43.3174 132.821 44.4668 131.682 45.9994 131.682C47.4043 131.682 48.6815 132.948 48.6815 134.341Z" fill="white"/>
<path d="M71.5438 134.341C71.5438 135.86 70.3944 137 68.8618 137C67.3291 137 66.1797 135.86 66.1797 134.341C66.1797 132.821 67.3291 131.682 68.8618 131.682C70.3944 131.682 71.5438 132.948 71.5438 134.341Z" fill="white"/>
<path d="M94.2772 134.341C94.2772 135.86 93.1278 137 91.5952 137C90.0625 137 88.9131 135.86 88.9131 134.341C88.9131 132.821 90.0625 131.682 91.5952 131.682C93.1278 131.682 94.2772 132.948 94.2772 134.341Z" fill="white"/>
<path d="M117.139 134.341C117.139 135.86 115.989 137 114.456 137C112.924 137 111.774 135.86 111.774 134.341C111.774 132.821 112.924 131.682 114.456 131.682C115.989 131.682 117.139 132.948 117.139 134.341Z" fill="white"/>
<path d="M140 134.341C140 135.86 138.85 137 137.318 137C135.785 137 134.636 135.86 134.636 134.341C134.636 132.821 135.785 131.682 137.318 131.682C138.723 131.682 140 132.948 140 134.341Z" fill="white"/>
</svg>
